<svg xmlns="http://www.w3.org/2000/svg" viewBox="0 0 1200 630" width="1200" height="630">
  <rect width="1200" height="630" fill="#ffffff"/>
  
  <!-- Subtle grid pattern -->
  <defs>
    <pattern id="grid" width="40" height="40" patternUnits="userSpaceOnUse">
      <path d="M 40 0 L 0 0 0 40" fill="none" stroke="#f0fdf4" stroke-width="1"/>
    </pattern>
    <linearGradient id="accent" x1="0%" y1="0%" x2="100%" y2="100%">
      <stop offset="0%" style="stop-color:#059669;stop-opacity:0.8"/>
      <stop offset="100%" style="stop-color:#047857;stop-opacity:1"/>
    </linearGradient>
  </defs>
  
  <rect width="1200" height="630" fill="url(#grid)"/>
  
  <!-- Accent bar -->
  <rect x="0" y="0" width="1200" height="8" fill="#059669"/>
  
  <!-- Brand area -->
  <rect x="80" y="180" width="1040" height="270" rx="16" fill="#f0fdf4" stroke="#d1fae5" stroke-width="2"/>
  
  <!-- Calendar icon (large) -->
  <g transform="translate(160, 240)">
    <rect x="0" y="8" width="80" height="72" rx="6" fill="none" stroke="#059669" stroke-width="4"/>
    <line x1="0" y1="30" x2="80" y2="30" stroke="#059669" stroke-width="4"/>
    <line x1="20" y1="0" x2="20" y2="14" stroke="#059669" stroke-width="4" stroke-linecap="round"/>
    <line x1="60" y1="0" x2="60" y2="14" stroke="#059669" stroke-width="4" stroke-linecap="round"/>
    <!-- Checkmark -->
    <circle cx="40" cy="52" r="16" fill="#059669"/>
    <path d="M32 52 L38 58 L48 46" fill="none" stroke="white" stroke-width="3" stroke-linecap="round" stroke-linejoin="round"/>
  </g>
  
  <!-- Title -->
  <text x="280" y="290" font-family="system-ui, -apple-system, sans-serif" font-size="64" font-weight="800" fill="#059669">sorou</text>
  
  <!-- Subtitle -->
  <text x="280" y="340" font-family="system-ui, -apple-system, sans-serif" font-size="28" font-weight="400" fill="#64748b">シンプルな日程調整ツール</text>
  
  <!-- Tagline -->
  <text x="280" y="400" font-family="system-ui, -apple-system, sans-serif" font-size="20" font-weight="400" fill="#94a3b8">認証不要 · エッジネイティブ · オープンソース</text>
</svg>
